<svg width="16" height="16" fill="none" xmlns="http://www.w3.org/2000/svg"><rect width="16" height="16" rx="5" fill="#fff"/><g clip-path="url(#clip0)"><path d="M8.002 10.2l-3.37-3.37h0a.458.458 0 00-.648 0h0a.458.458 0 000 .647h0l3.694 3.694h0a.458.458 0 00.648 0h0l3.694-3.694h0l.002-.002a.458.458 0 00-.012-.648h0a.458.458 0 00-.636 0h0l-.002.002-3.37 3.37z" fill="#50CAFF" stroke="#50CAFF" stroke-width=".3"/></g><defs><clipPath id="clip0"><path fill="#fff" transform="rotate(-90 8.5 5.5)" d="M0 0h10v10H0z"/></clipPath></defs></svg>