<svg width="18" height="18" fill="none" xmlns="http://www.w3.org/2000/svg"><path d="M9 5.168a.703.703 0 100-1.406.703.703 0 000 1.406z" fill="#fff"/><path d="M15.364 2.636A8.941 8.941 0 009 0a8.941 8.941 0 00-6.364 2.636A8.941 8.941 0 000 9c0 2.404.936 4.664 2.636 6.364A8.941 8.941 0 009 18a8.986 8.986 0 004.657-1.297.703.703 0 00-.729-1.203A7.58 7.58 0 019 16.594c-4.187 0-7.594-3.407-7.594-7.594S4.813 1.406 9 1.406 16.594 4.813 16.594 9a7.563 7.563 0 01-1.288 4.215.703.703 0 001.17.781A8.965 8.965 0 0018 9a8.941 8.941 0 00-2.636-6.364z" fill="#fff"/><path d="M9 6.574a.703.703 0 00-.703.703v6.258a.703.703 0 001.406 0V7.277A.703.703 0 009 6.574z" fill="#fff"/></svg>