<svg width="50" height="50" fill="none" xmlns="http://www.w3.org/2000/svg"><path d="M3.18 3.906v-.25H1.953a1.703 1.703 0 110-3.406h19.043a1.703 1.703 0 110 3.406H19.77V8.79a1.703 1.703 0 11-3.407 0V3.656H6.586v13.196h11.48c.941 0 1.704.762 1.704 1.703v22.9c0 4.574-3.722 8.295-8.295 8.295-4.574 0-8.295-3.721-8.295-8.295V3.906zm13.183 16.602v-.25H6.586v21.197a4.894 4.894 0 004.889 4.889 4.894 4.894 0 004.888-4.889V20.508zM30.23 3.906v-.25h-1.226a1.703 1.703 0 110-3.406h19.043a1.703 1.703 0 110 3.406H46.82v10.992a1.703 1.703 0 11-3.406 0V3.656h-9.777v19.055h11.48c.94 0 1.703.762 1.703 1.703v17.041c0 4.574-3.721 8.295-8.295 8.295-4.573 0-8.294-3.721-8.294-8.295V3.906zm13.184 22.461v-.25h-9.777v15.338a4.894 4.894 0 004.888 4.889 4.894 4.894 0 004.89-4.889V26.367z" fill="#EBE7FF" stroke="#fff" stroke-width=".5"/></svg>