<svg width="16" height="18" fill="none" xmlns="http://www.w3.org/2000/svg"><path d="M15.41 13.391a.703.703 0 10-1.382.26.695.695 0 01-.15.58.693.693 0 01-.541.253H2.664a.693.693 0 01-.541-.254.695.695 0 01-.15-.58c.199-1.064.6-1.764.986-2.44.47-.823.956-1.673.956-2.983V7.172a4.094 4.094 0 014.019-4.078h.133c2.208.032 4.005 1.86 4.005 4.078v1.055c0 1.115.364 1.882.706 2.514a.703.703 0 101.237-.67c-.34-.628-.537-1.131-.537-1.844V7.172c0-1.447-.56-2.814-1.579-3.849a5.43 5.43 0 00-3.202-1.592V.703a.703.703 0 10-1.407 0v1.03C4.602 2.082 2.51 4.4 2.51 7.172v1.055c0 .936-.34 1.531-.77 2.284-.425.742-.905 1.583-1.149 2.88-.116.62.049 1.253.45 1.738.403.484.994.762 1.624.762h3.234c0 1.163.946 2.109 2.109 2.109s2.11-.946 2.11-2.11h3.22a2.105 2.105 0 002.073-2.5zm-7.403 3.203a.704.704 0 01-.703-.703H8.71a.704.704 0 01-.703.703z" fill="#fff"/></svg>