<svg width="18" height="18" fill="none" xmlns="http://www.w3.org/2000/svg"><g clip-path="url(#clip0)" fill="#fff"><path d="M9.036 10.371a1.371 1.371 0 100-2.742 1.371 1.371 0 000 2.742z"/><path d="M9.036 4.992A4.012 4.012 0 005.028 9a4.012 4.012 0 004.008 4.008A4.012 4.012 0 0013.043 9a4.012 4.012 0 00-4.007-4.008zm0 6.61A2.604 2.604 0 016.434 9a2.604 2.604 0 012.602-2.602A2.605 2.605 0 0111.637 9 2.604 2.604 0 019.036 11.6z"/><path d="M17.545 7.465a13.592 13.592 0 00-3.142-3.327c-1.738-1.3-3.55-1.958-5.387-1.958-1.834 0-3.649.657-5.392 1.953A13.688 13.688 0 00.463 7.455a2.808 2.808 0 000 3.09 13.688 13.688 0 003.16 3.322c1.744 1.296 3.558 1.953 5.393 1.953 2.824 0 5.095-1.575 6.502-2.895a.703.703 0 10-.962-1.026c-1.223 1.147-3.176 2.515-5.54 2.515-3.414 0-6.244-2.918-7.378-4.642a1.403 1.403 0 010-1.544c1.134-1.724 3.964-4.642 7.378-4.642 3.413 0 6.226 2.92 7.35 4.647a1.407 1.407 0 010 1.534.703.703 0 101.179.768 2.814 2.814 0 000-3.07z"/></g><defs><clipPath id="clip0"><path fill="#fff" d="M0 0h18v18H0z"/></clipPath></defs></svg>