<svg width="50" height="50" fill="none" xmlns="http://www.w3.org/2000/svg"><path d="M5.78 41.22v.001l-3.373 3.36h0a3.013 3.013 0 00-.655 3.292h0a3.018 3.018 0 002.795 1.871l8.852.006h.004c1.231 0 2.388-.48 3.258-1.35h0a4.575 4.575 0 001.35-3.262l-.004-8.854a3.018 3.018 0 00-1.87-2.794h0a3.013 3.013 0 00-3.294.655h0v.001h0-.001 0v.001h0-.001 0v.001h0-.001 0v.001h0-.001 0v.001h0-.001 0v.001h0-.001 0v.001h0-.001 0v.001h0-.001 0v.001h0-.001 0v.001h0-.001 0v.001h0-.001 0v.001h0-.001 0v.001h0-.001 0v.001h0-.001 0v.001h0l-.765.782h0a1.703 1.703 0 00.027 2.408l-.175.179.175-.179c.582.57 1.469.637 2.123.208l.387-.254v.463l.005 7.373v0c0 .434-.222.72-.353.852-.131.13-.417.352-.85.352h0-.001 0l-7.329-.005H5.47l.428-.427 2.289-2.28s0 0 0 0a3.847 3.847 0 00.255-5.165l.193-.157-.193.157a21.376 21.376 0 01-4.784-13.675C3.768 13.13 13.338 3.656 25.001 3.656h.032C36.785 3.674 46.345 13.25 46.345 25c0 4.21-1.252 8.306-3.619 11.847h0a1.703 1.703 0 002.831 1.893h0C48.3 34.636 49.75 29.885 49.75 25c0-6.605-2.57-12.815-7.236-17.488A24.588 24.588 0 0025.039.25h0-.001 0-.001 0-.001 0-.001 0-.001 0-.001 0-.001 0-.001 0-.001 0-.001 0-.001 0-.001 0-.001 0-.001 0-.001 0-.001 0-.001 0-.001 0-.001 0-.001 0-.001 0-.001 0-.001 0-.001 0-.001 0-.001 0-.001 0-.001 0-.001 0-.001 0-.001 0-.001 0-.001 0-.001 0-.001 0-.001 0-.001 0H25h0C11.479.25.379 11.238.25 24.76l-.25-.002.25.002A24.79 24.79 0 005.8 40.618l-.02.603zm0 0a.45.45 0 00.02-.602l-.02.603zm17.392-19.386l.125-.072V9.766a1.703 1.703 0 113.406 0v11.996l.125.072a3.654 3.654 0 011.704 4.113l-.037.14.102.101 5.176 5.176h0a1.703 1.703 0 010 2.409h0a1.696 1.696 0 01-1.204.498c-.437 0-.872-.166-1.205-.498h0l-5.176-5.176-.102-.102-.139.037a3.656 3.656 0 01-2.775-6.698zm12.87 21.436h0a1.703 1.703 0 011.764 2.913h0A24.71 24.71 0 0125 49.75a1.703 1.703 0 110-3.406c3.903 0 7.721-1.063 11.042-3.074z" fill="#EBE7FF" stroke="#fff" stroke-width=".5"/></svg>