<svg width="40" height="50" fill="none" xmlns="http://www.w3.org/2000/svg"><path d="M18.384 32.617v-.25H13.25a1.703 1.703 0 010-3.406h5.133v-5.133a1.703 1.703 0 013.406 0v5.133h5.133a1.703 1.703 0 110 3.406H21.79V37.5a1.703 1.703 0 11-3.406 0v-4.883zM25.848 8.54h-.25V9.766a5.616 5.616 0 01-5.61 5.609 5.616 5.616 0 01-5.608-5.61V8.54H7.988a4.16 4.16 0 00-4.156 4.156v29.492a4.16 4.16 0 004.156 4.157h24.013a4.16 4.16 0 004.156-4.157 1.703 1.703 0 013.406 0c0 4.17-3.393 7.563-7.562 7.563H7.988c-4.17 0-7.562-3.393-7.562-7.563V12.695c0-4.17 3.392-7.562 7.562-7.562h6.392v-3.18c0-.94.762-1.703 1.703-1.703h7.813c.94 0 1.703.762 1.703 1.703v3.18H32c4.17 0 7.563 3.392 7.563 7.562V32.52a1.703 1.703 0 01-3.407 0V12.695A4.16 4.16 0 0032 8.54h-6.153zm-3.656-4.633v-.25H17.786v6.11c0 1.215.988 2.203 2.203 2.203a2.205 2.205 0 002.203-2.203v-5.86z" fill="#fff" stroke="#50CAFF" stroke-width=".5"/></svg>